<svg id="visual" viewBox="0 0 2000 2000" width="2000" height="2000" xmlns="http://www.w3.org/2000/svg" xmlns:xlink="http://www.w3.org/1999/xlink" version="1.1"><g stroke-width="1" stroke-linejoin="bevel"><path d="M1000 1000L1000 750L750 750Z" fill="#e2e2e2" stroke="#e2e2e2"></path><path d="M750 750L750 1000L1000 1000Z" fill="#e7e7e7" stroke="#e7e7e7"></path><path d="M750 1000L1000 1250L1000 1000Z" fill="#e0e0e0" stroke="#e0e0e0"></path><path d="M1000 1250L1250 1000L1000 1000Z" fill="#e9e9e9" stroke="#e9e9e9"></path><path d="M1000 1000L1250 1000L1000 750Z" fill="#e9e9e9" stroke="#e9e9e9"></path><path d="M1250 1000L1250 750L1000 750Z" fill="#dfdfdf" stroke="#dfdfdf"></path><path d="M750 750L500 750L750 1000Z" fill="#e9e9e9" stroke="#e9e9e9"></path><path d="M1250 750L1000 500L1000 750Z" fill="#ececec" stroke="#ececec"></path><path d="M1000 750L1000 500L750 750Z" fill="#e5e5e5" stroke="#e5e5e5"></path><path d="M750 750L750 500L500 750Z" fill="#e9e9e9" stroke="#e9e9e9"></path><path d="M1000 500L750 500L750 750Z" fill="#dfdfdf" stroke="#dfdfdf"></path><path d="M500 1000L750 1250L750 1000Z" fill="#e5e5e5" stroke="#e5e5e5"></path><path d="M750 1000L750 1250L1000 1250Z" fill="#ececec" stroke="#ececec"></path><path d="M500 750L500 1000L750 1000Z" fill="#e3e3e3" stroke="#e3e3e3"></path><path d="M500 1000L500 1250L750 1250Z" fill="#eaeaea" stroke="#eaeaea"></path><path d="M1250 750L1250 500L1000 500Z" fill="#e7e7e7" stroke="#e7e7e7"></path><path d="M1000 1250L1250 1250L1250 1000Z" fill="#ececec" stroke="#ececec"></path><path d="M750 500L500 500L500 750Z" fill="#dfdfdf" stroke="#dfdfdf"></path><path d="M1500 1000L1500 750L1250 1000Z" fill="#e3e3e3" stroke="#e3e3e3"></path><path d="M1250 1000L1500 750L1250 750Z" fill="#eaeaea" stroke="#eaeaea"></path><path d="M1250 750L1500 750L1250 500Z" fill="#e2e2e2" stroke="#e2e2e2"></path><path d="M750 1250L1000 1500L1000 1250Z" fill="#dfdfdf" stroke="#dfdfdf"></path><path d="M1000 1250L1000 1500L1250 1250Z" fill="#eaeaea" stroke="#eaeaea"></path><path d="M750 1500L1000 1500L750 1250Z" fill="#e2e2e2" stroke="#e2e2e2"></path><path d="M500 1250L750 1500L750 1250Z" fill="#e9e9e9" stroke="#e9e9e9"></path><path d="M500 500L250 750L500 750Z" fill="#e3e3e3" stroke="#e3e3e3"></path><path d="M500 750L250 750L500 1000Z" fill="#e9e9e9" stroke="#e9e9e9"></path><path d="M500 1000L250 1000L500 1250Z" fill="#eeeeee" stroke="#eeeeee"></path><path d="M1250 1250L1500 1000L1250 1000Z" fill="#ececec" stroke="#ececec"></path><path d="M1250 500L1000 250L1000 500Z" fill="#eaeaea" stroke="#eaeaea"></path><path d="M1000 500L1000 250L750 500Z" fill="#e9e9e9" stroke="#e9e9e9"></path><path d="M750 500L750 250L500 500Z" fill="#e2e2e2" stroke="#e2e2e2"></path><path d="M1000 250L750 250L750 500Z" fill="#e0e0e0" stroke="#e0e0e0"></path><path d="M250 750L250 1000L500 1000Z" fill="#e9e9e9" stroke="#e9e9e9"></path><path d="M250 1250L500 1500L500 1250Z" fill="#eaeaea" stroke="#eaeaea"></path><path d="M500 1250L500 1500L750 1500Z" fill="#eeeeee" stroke="#eeeeee"></path><path d="M250 1000L250 1250L500 1250Z" fill="#e5e5e5" stroke="#e5e5e5"></path><path d="M500 500L250 500L250 750Z" fill="#e3e3e3" stroke="#e3e3e3"></path><path d="M500 250L250 500L500 500Z" fill="#e3e3e3" stroke="#e3e3e3"></path><path d="M1250 1500L1500 1250L1250 1250Z" fill="#e3e3e3" stroke="#e3e3e3"></path><path d="M1250 1250L1500 1250L1500 1000Z" fill="#dddddd" stroke="#dddddd"></path><path d="M750 250L500 250L500 500Z" fill="#e9e9e9" stroke="#e9e9e9"></path><path d="M1000 1500L1250 1500L1250 1250Z" fill="#e2e2e2" stroke="#e2e2e2"></path><path d="M1500 500L1250 250L1250 500Z" fill="#ececec" stroke="#ececec"></path><path d="M1250 500L1250 250L1000 250Z" fill="#dfdfdf" stroke="#dfdfdf"></path><path d="M1500 750L1500 500L1250 500Z" fill="#dfdfdf" stroke="#dfdfdf"></path><path d="M250 1250L250 1500L500 1500Z" fill="#eeeeee" stroke="#eeeeee"></path><path d="M1500 1000L1750 1000L1500 750Z" fill="#e5e5e5" stroke="#e5e5e5"></path><path d="M1500 750L1750 750L1500 500Z" fill="#e3e3e3" stroke="#e3e3e3"></path><path d="M1500 1250L1750 1000L1500 1000Z" fill="#dfdfdf" stroke="#dfdfdf"></path><path d="M1250 1500L1500 1500L1500 1250Z" fill="#ececec" stroke="#ececec"></path><path d="M1500 1250L1750 1250L1750 1000Z" fill="#ececec" stroke="#ececec"></path><path d="M500 1750L750 1750L500 1500Z" fill="#dddddd" stroke="#dddddd"></path><path d="M500 1500L750 1750L750 1500Z" fill="#e9e9e9" stroke="#e9e9e9"></path><path d="M750 1500L750 1750L1000 1500Z" fill="#eaeaea" stroke="#eaeaea"></path><path d="M1000 1500L1000 1750L1250 1500Z" fill="#eeeeee" stroke="#eeeeee"></path><path d="M1250 1500L1250 1750L1500 1500Z" fill="#e3e3e3" stroke="#e3e3e3"></path><path d="M750 1750L1000 1750L1000 1500Z" fill="#ececec" stroke="#ececec"></path><path d="M1750 1000L1750 750L1500 750Z" fill="#dfdfdf" stroke="#dfdfdf"></path><path d="M250 1000L0 1000L250 1250Z" fill="#e2e2e2" stroke="#e2e2e2"></path><path d="M250 1250L0 1250L250 1500Z" fill="#e2e2e2" stroke="#e2e2e2"></path><path d="M250 750L0 1000L250 1000Z" fill="#dfdfdf" stroke="#dfdfdf"></path><path d="M0 750L0 1000L250 750Z" fill="#dfdfdf" stroke="#dfdfdf"></path><path d="M1750 500L1500 250L1500 500Z" fill="#e5e5e5" stroke="#e5e5e5"></path><path d="M1500 500L1500 250L1250 250Z" fill="#dfdfdf" stroke="#dfdfdf"></path><path d="M1000 250L750 0L750 250Z" fill="#e7e7e7" stroke="#e7e7e7"></path><path d="M750 250L750 0L500 250Z" fill="#e5e5e5" stroke="#e5e5e5"></path><path d="M1000 0L750 0L1000 250Z" fill="#e5e5e5" stroke="#e5e5e5"></path><path d="M1000 0L1000 250L1250 250Z" fill="#ececec" stroke="#ececec"></path><path d="M250 500L0 750L250 750Z" fill="#ececec" stroke="#ececec"></path><path d="M1250 0L1000 0L1250 250Z" fill="#dddddd" stroke="#dddddd"></path><path d="M500 0L250 250L500 250Z" fill="#dfdfdf" stroke="#dfdfdf"></path><path d="M500 250L250 250L250 500Z" fill="#e7e7e7" stroke="#e7e7e7"></path><path d="M250 500L0 500L0 750Z" fill="#eeeeee" stroke="#eeeeee"></path><path d="M750 0L500 0L500 250Z" fill="#e7e7e7" stroke="#e7e7e7"></path><path d="M250 1500L500 1750L500 1500Z" fill="#e0e0e0" stroke="#e0e0e0"></path><path d="M1500 250L1250 0L1250 250Z" fill="#e7e7e7" stroke="#e7e7e7"></path><path d="M1500 1500L1750 1250L1500 1250Z" fill="#e2e2e2" stroke="#e2e2e2"></path><path d="M1000 1750L1250 1750L1250 1500Z" fill="#e5e5e5" stroke="#e5e5e5"></path><path d="M250 250L0 500L250 500Z" fill="#dddddd" stroke="#dddddd"></path><path d="M1750 750L1750 500L1500 500Z" fill="#e2e2e2" stroke="#e2e2e2"></path><path d="M0 1000L0 1250L250 1250Z" fill="#dfdfdf" stroke="#dfdfdf"></path><path d="M1750 500L1750 250L1500 250Z" fill="#e2e2e2" stroke="#e2e2e2"></path><path d="M1500 250L1500 0L1250 0Z" fill="#e5e5e5" stroke="#e5e5e5"></path><path d="M0 1250L0 1500L250 1500Z" fill="#e0e0e0" stroke="#e0e0e0"></path><path d="M250 1500L250 1750L500 1750Z" fill="#e7e7e7" stroke="#e7e7e7"></path><path d="M250 250L0 250L0 500Z" fill="#e0e0e0" stroke="#e0e0e0"></path><path d="M250 0L0 250L250 250Z" fill="#e3e3e3" stroke="#e3e3e3"></path><path d="M1750 250L1500 0L1500 250Z" fill="#ececec" stroke="#ececec"></path><path d="M1500 1750L1750 1500L1500 1500Z" fill="#dddddd" stroke="#dddddd"></path><path d="M1500 1500L1750 1500L1750 1250Z" fill="#e2e2e2" stroke="#e2e2e2"></path><path d="M0 1500L250 1750L250 1500Z" fill="#dfdfdf" stroke="#dfdfdf"></path><path d="M1250 1750L1500 1750L1500 1500Z" fill="#e5e5e5" stroke="#e5e5e5"></path><path d="M500 0L250 0L250 250Z" fill="#e9e9e9" stroke="#e9e9e9"></path><path d="M1000 1750L1000 2000L1250 1750Z" fill="#e0e0e0" stroke="#e0e0e0"></path><path d="M1250 1750L1250 2000L1500 1750Z" fill="#e5e5e5" stroke="#e5e5e5"></path><path d="M750 1750L750 2000L1000 1750Z" fill="#e0e0e0" stroke="#e0e0e0"></path><path d="M500 1750L750 2000L750 1750Z" fill="#e9e9e9" stroke="#e9e9e9"></path><path d="M500 2000L750 2000L500 1750Z" fill="#e3e3e3" stroke="#e3e3e3"></path><path d="M1750 1000L2000 750L1750 750Z" fill="#e0e0e0" stroke="#e0e0e0"></path><path d="M1750 750L2000 750L1750 500Z" fill="#ececec" stroke="#ececec"></path><path d="M1750 500L2000 500L1750 250Z" fill="#eaeaea" stroke="#eaeaea"></path><path d="M2000 1000L2000 750L1750 1000Z" fill="#dddddd" stroke="#dddddd"></path><path d="M2000 1000L1750 1000L1750 1250Z" fill="#e3e3e3" stroke="#e3e3e3"></path><path d="M750 2000L1000 2000L1000 1750Z" fill="#dfdfdf" stroke="#dfdfdf"></path><path d="M2000 1250L2000 1000L1750 1250Z" fill="#e0e0e0" stroke="#e0e0e0"></path><path d="M1000 2000L1250 2000L1250 1750Z" fill="#e5e5e5" stroke="#e5e5e5"></path><path d="M250 1750L500 2000L500 1750Z" fill="#e2e2e2" stroke="#e2e2e2"></path><path d="M2000 750L2000 500L1750 500Z" fill="#eeeeee" stroke="#eeeeee"></path><path d="M1750 1500L2000 1250L1750 1250Z" fill="#e3e3e3" stroke="#e3e3e3"></path><path d="M1500 1750L1750 1750L1750 1500Z" fill="#e0e0e0" stroke="#e0e0e0"></path><path d="M1750 1500L2000 1500L2000 1250Z" fill="#e7e7e7" stroke="#e7e7e7"></path><path d="M1500 2000L1750 1750L1500 1750Z" fill="#eaeaea" stroke="#eaeaea"></path><path d="M250 0L0 0L0 250Z" fill="#e2e2e2" stroke="#e2e2e2"></path><path d="M0 1500L0 1750L250 1750Z" fill="#e0e0e0" stroke="#e0e0e0"></path><path d="M250 1750L250 2000L500 2000Z" fill="#e7e7e7" stroke="#e7e7e7"></path><path d="M2000 250L1750 0L1750 250Z" fill="#e2e2e2" stroke="#e2e2e2"></path><path d="M1750 250L1750 0L1500 0Z" fill="#e0e0e0" stroke="#e0e0e0"></path><path d="M0 1750L250 2000L250 1750Z" fill="#ececec" stroke="#ececec"></path><path d="M1750 1750L2000 1500L1750 1500Z" fill="#ececec" stroke="#ececec"></path><path d="M2000 500L2000 250L1750 250Z" fill="#eeeeee" stroke="#eeeeee"></path><path d="M1250 2000L1500 2000L1500 1750Z" fill="#dddddd" stroke="#dddddd"></path><path d="M1750 2000L2000 1750L1750 1750Z" fill="#e2e2e2" stroke="#e2e2e2"></path><path d="M1750 1750L2000 1750L2000 1500Z" fill="#e5e5e5" stroke="#e5e5e5"></path><path d="M0 1750L0 2000L250 2000Z" fill="#e2e2e2" stroke="#e2e2e2"></path><path d="M2000 250L2000 0L1750 0Z" fill="#dfdfdf" stroke="#dfdfdf"></path><path d="M1500 2000L1750 2000L1750 1750Z" fill="#e3e3e3" stroke="#e3e3e3"></path><path d="M1750 2000L2000 2000L2000 1750Z" fill="#e0e0e0" stroke="#e0e0e0"></path></g></svg>